<?xml version="1.0" encoding="UTF-8" standalone="no"?>
<!-- Generator: Adobe Illustrator 19.0.0, SVG Export Plug-In . SVG Version: 6.00 Build 0)  -->

<svg
   xmlns:dc="http://purl.org/dc/elements/1.1/"
   xmlns:cc="http://creativecommons.org/ns#"
   xmlns:rdf="http://www.w3.org/1999/02/22-rdf-syntax-ns#"
   xmlns:svg="http://www.w3.org/2000/svg"
   xmlns="http://www.w3.org/2000/svg"
   xmlns:sodipodi="http://sodipodi.sourceforge.net/DTD/sodipodi-0.dtd"
   xmlns:inkscape="http://www.inkscape.org/namespaces/inkscape"
   version="1.1"
   id="Layer_1"
   x="0px"
   y="0px"
   viewBox="0 0 512 512"
   style="enable-background:new 0 0 512 512;"
   xml:space="preserve"
   sodipodi:docname="truck.svg"
   inkscape:version="0.92.3 (2405546, 2018-03-11)"><metadata
   id="metadata73"><rdf:RDF><cc:Work
       rdf:about=""><dc:format>image/svg+xml</dc:format><dc:type
         rdf:resource="http://purl.org/dc/dcmitype/StillImage" /></cc:Work></rdf:RDF></metadata><defs
   id="defs71" /><sodipodi:namedview
   pagecolor="#ffffff"
   bordercolor="#666666"
   borderopacity="1"
   objecttolerance="10"
   gridtolerance="10"
   guidetolerance="10"
   inkscape:pageopacity="0"
   inkscape:pageshadow="2"
   inkscape:window-width="1920"
   inkscape:window-height="1014"
   id="namedview69"
   showgrid="false"
   inkscape:zoom="0.4609375"
   inkscape:cx="256"
   inkscape:cy="256"
   inkscape:window-x="0"
   inkscape:window-y="0"
   inkscape:window-maximized="1"
   inkscape:current-layer="Layer_1" />
<g
   id="g6"
   style="fill:#ffa500;fill-opacity:1">
	<g
   id="g4"
   style="fill:#ffa500;fill-opacity:1">
		<path
   d="M476.158,231.363l-13.259-53.035c3.625-0.77,6.345-3.986,6.345-7.839v-8.551c0-18.566-15.105-33.67-33.67-33.67h-60.392    V110.63c0-9.136-7.432-16.568-16.568-16.568H50.772c-9.136,0-16.568,7.432-16.568,16.568V256c0,4.427,3.589,8.017,8.017,8.017    c4.427,0,8.017-3.589,8.017-8.017V110.63c0-0.295,0.239-0.534,0.534-0.534h307.841c0.295,0,0.534,0.239,0.534,0.534v145.372    c0,4.427,3.589,8.017,8.017,8.017c4.427,0,8.017-3.589,8.017-8.017v-9.088h94.569c0.008,0,0.014,0.002,0.021,0.002    c0.008,0,0.015-0.001,0.022-0.001c11.637,0.008,21.518,7.646,24.912,18.171h-24.928c-4.427,0-8.017,3.589-8.017,8.017v17.102    c0,13.851,11.268,25.119,25.119,25.119h9.086v35.273h-20.962c-6.886-19.883-25.787-34.205-47.982-34.205    s-41.097,14.322-47.982,34.205h-3.86v-60.393c0-4.427-3.589-8.017-8.017-8.017c-4.427,0-8.017,3.589-8.017,8.017v60.391H192.817    c-6.886-19.883-25.787-34.205-47.982-34.205s-41.097,14.322-47.982,34.205H50.772c-0.295,0-0.534-0.239-0.534-0.534v-17.637    h34.739c4.427,0,8.017-3.589,8.017-8.017s-3.589-8.017-8.017-8.017H8.017c-4.427,0-8.017,3.589-8.017,8.017    s3.589,8.017,8.017,8.017h26.188v17.637c0,9.136,7.432,16.568,16.568,16.568h43.304c-0.002,0.178-0.014,0.355-0.014,0.534    c0,27.996,22.777,50.772,50.772,50.772s50.772-22.776,50.772-50.772c0-0.18-0.012-0.356-0.014-0.534h180.67    c-0.002,0.178-0.014,0.355-0.014,0.534c0,27.996,22.777,50.772,50.772,50.772c27.995,0,50.772-22.776,50.772-50.772    c0-0.18-0.012-0.356-0.014-0.534h26.203c4.427,0,8.017-3.589,8.017-8.017v-85.511C512,251.989,496.423,234.448,476.158,231.363z     M375.182,144.301h60.392c9.725,0,17.637,7.912,17.637,17.637v0.534h-78.029V144.301z M375.182,230.881v-52.376h71.235    l13.094,52.376H375.182z M144.835,401.904c-19.155,0-34.739-15.583-34.739-34.739s15.584-34.739,34.739-34.739    c19.155,0,34.739,15.583,34.739,34.739S163.99,401.904,144.835,401.904z M427.023,401.904c-19.155,0-34.739-15.583-34.739-34.739    s15.584-34.739,34.739-34.739c19.155,0,34.739,15.583,34.739,34.739S446.178,401.904,427.023,401.904z M495.967,299.29h-9.086    c-5.01,0-9.086-4.076-9.086-9.086v-9.086h18.171V299.29z"
   id="path2"
   style="fill:#ffa500;fill-opacity:1" />
	</g>
</g>
<g
   id="g12"
   style="fill:#ffa500;fill-opacity:1">
	<g
   id="g10"
   style="fill:#ffa500;fill-opacity:1">
		<path
   d="M144.835,350.597c-9.136,0-16.568,7.432-16.568,16.568c0,9.136,7.432,16.568,16.568,16.568    c9.136,0,16.568-7.432,16.568-16.568C161.403,358.029,153.971,350.597,144.835,350.597z"
   id="path8"
   style="fill:#ffa500;fill-opacity:1" />
	</g>
</g>
<g
   id="g18"
   style="fill:#ffa500;fill-opacity:1">
	<g
   id="g16"
   style="fill:#ffa500;fill-opacity:1">
		<path
   d="M427.023,350.597c-9.136,0-16.568,7.432-16.568,16.568c0,9.136,7.432,16.568,16.568,16.568    c9.136,0,16.568-7.432,16.568-16.568C443.591,358.029,436.159,350.597,427.023,350.597z"
   id="path14"
   style="fill:#ffa500;fill-opacity:1" />
	</g>
</g>
<g
   id="g24"
   style="fill:#ffa500;fill-opacity:1">
	<g
   id="g22"
   style="fill:#ffa500;fill-opacity:1">
		<path
   d="M332.96,316.393H213.244c-4.427,0-8.017,3.589-8.017,8.017s3.589,8.017,8.017,8.017H332.96    c4.427,0,8.017-3.589,8.017-8.017S337.388,316.393,332.96,316.393z"
   id="path20"
   style="fill:#ffa500;fill-opacity:1" />
	</g>
</g>
<g
   id="g30"
   style="fill:#ffa500;fill-opacity:1">
	<g
   id="g28"
   style="fill:#ffa500;fill-opacity:1">
		<path
   d="M127.733,282.188H25.119c-4.427,0-8.017,3.589-8.017,8.017s3.589,8.017,8.017,8.017h102.614    c4.427,0,8.017-3.589,8.017-8.017S132.16,282.188,127.733,282.188z"
   id="path26"
   style="fill:#ffa500;fill-opacity:1" />
	</g>
</g>
<g
   id="g36"
   style="fill:#ffa500;fill-opacity:1">
	<g
   id="g34"
   style="fill:#ffa500;fill-opacity:1">
		<path
   d="M278.771,173.37c-3.13-3.13-8.207-3.13-11.337,0.001l-71.292,71.291l-37.087-37.087c-3.131-3.131-8.207-3.131-11.337,0    c-3.131,3.131-3.131,8.206,0,11.337l42.756,42.756c1.565,1.566,3.617,2.348,5.668,2.348s4.104-0.782,5.668-2.348l76.96-76.96    C281.901,181.576,281.901,176.501,278.771,173.37z"
   id="path32"
   style="fill:#ffa500;fill-opacity:1" />
	</g>
</g>
<g
   id="g38">
</g>
<g
   id="g40">
</g>
<g
   id="g42">
</g>
<g
   id="g44">
</g>
<g
   id="g46">
</g>
<g
   id="g48">
</g>
<g
   id="g50">
</g>
<g
   id="g52">
</g>
<g
   id="g54">
</g>
<g
   id="g56">
</g>
<g
   id="g58">
</g>
<g
   id="g60">
</g>
<g
   id="g62">
</g>
<g
   id="g64">
</g>
<g
   id="g66">
</g>
</svg>